<svg xmlns="http://www.w3.org/2000/svg" viewBox="0 0 200 44" fill="none">
  <!-- Isotipo (centrado verticalmente en 44px) -->
  <g transform="translate(0, 2)">
    <path d="M30 12C27.5 8.5 23.5 6.5 19 6.5C12 6.5 6.5 12 6.5 20C6.5 28 12 33.5 19 33.5C25.5 33.5 30.5 29 31.5 23H20V18H33.5V20C33.5 28.5 27 35.5 19 35.5C10.7 35.5 4.5 29.3 4.5 20C4.5 10.7 10.7 4.5 19 4.5C24 4.5 28.5 6.8 31.5 10.5L30 12Z"
          fill="#0A1022"/>
    <circle cx="19" cy="4.5"  r="2"   fill="#22C55E"/>
    <circle cx="33.5" cy="20" r="2"   fill="#22C55E"/>
    <circle cx="20"   cy="18" r="1.5" fill="#22C55E" fill-opacity="0.7"/>
    <circle cx="19"   cy="35.5" r="2" fill="#22C55E"/>
    <line x1="19" y1="6.5"  x2="19" y2="9"  stroke="#22C55E" stroke-width="1" stroke-opacity="0.4"/>
    <line x1="31.5" y1="20" x2="28" y2="20" stroke="#22C55E" stroke-width="1" stroke-opacity="0.4"/>
    <line x1="19" y1="33.5" x2="19" y2="31" stroke="#22C55E" stroke-width="1" stroke-opacity="0.4"/>
  </g>
  <!-- Wordmark -->
  <text x="48" y="29"
        font-family="'Space Grotesk', -apple-system, sans-serif"
        font-size="20" font-weight="700" fill="#0A1022"
        letter-spacing="-0.4">GrowthCore</text>
</svg>
